<?xml version='1.0' encoding='utf-8'?>
<svg class="chart-svg" role="img" aria-labelledby="t-点密度地图示例 d-点密度地图示例" xmlns="http://www.w3.org/2000/svg" viewBox="0 0 360 190" width="360" height="190">
  <style>:root{--paper:#f3e6c6;--ink:#28231b;--muted:#736249;--rule:#c4a971;--cinnabar:#c44530;--stone-blue:#006f91;--stone-green:#2f8456;--ochre:#b97a12}
text{font-family:"PingFang SC","Noto Sans CJK SC","Microsoft YaHei",sans-serif;fill:var(--ink)}
.label,.value,.value-light,.big-value,.note,.tick,.axis-title{font-size:12px}
.value,.big-value{font-weight:700;font-variant-numeric:tabular-nums}.big-value{font-size:18px}
.value-light{font-weight:700;fill:var(--paper)}.tick,.axis-title{fill:var(--muted)}
.axis{stroke:var(--rule);stroke-width:1}.grid{stroke:var(--rule);stroke-width:1;stroke-dasharray:3 4;opacity:.72}
.red{stroke:var(--cinnabar);stroke-width:2.5}.blue{stroke:var(--stone-blue);stroke-width:2.5}.green{stroke:var(--stone-green);stroke-width:2.5}.gold{stroke:var(--ochre);stroke-width:2.5}</style>
  <title id="t-点密度地图示例">点密度地图示例</title>
  <desc id="d-点密度地图示例">每个点代表固定数量，位置只表示区域内近似分布。</desc>
  <path d="M52,34 L120,28 L132,70 L91,91 L48,72 Z" fill="#e2cfa1" stroke="#c4a971" stroke-width="1.2"/>
  <path d="M120,28 L196,24 L206,71 L132,70 Z" fill="#e2cfa1" stroke="#c4a971" stroke-width="1.2"/>
  <path d="M196,24 L283,34 L303,74 L250,90 L206,71 Z" fill="#e2cfa1" stroke="#c4a971" stroke-width="1.2"/>
  <path d="M48,72 L91,91 L112,142 L58,153 L38,112 Z" fill="#e2cfa1" stroke="#c4a971" stroke-width="1.2"/>
  <path d="M91,91 L164,78 L193,126 L158,158 L112,142 Z" fill="#e2cfa1" stroke="#c4a971" stroke-width="1.2"/>
  <path d="M164,78 L250,90 L235,144 L193,126 Z" fill="#e2cfa1" stroke="#c4a971" stroke-width="1.2"/>
  <path d="M250,90 L303,74 L336,111 L305,154 L235,144 Z" fill="#e2cfa1" stroke="#c4a971" stroke-width="1.2"/>
  <path d="M132,70 L206,71 L164,78 Z" fill="#e2cfa1" stroke="#c4a971" stroke-width="1.2"/>
  <circle cx="61" cy="37" r="2.3" fill="#c44530"/>
  <circle cx="108" cy="68" r="2.3" fill="#006f91"/>
  <circle cx="155" cy="99" r="2.3" fill="#006f91"/>
  <circle cx="202" cy="130" r="2.3" fill="#006f91"/>
  <circle cx="249" cy="49" r="2.3" fill="#006f91"/>
  <circle cx="296" cy="80" r="2.3" fill="#006f91"/>
  <circle cx="73" cy="111" r="2.3" fill="#006f91"/>
  <circle cx="120" cy="142" r="2.3" fill="#006f91"/>
  <circle cx="167" cy="61" r="2.3" fill="#006f91"/>
  <circle cx="214" cy="92" r="2.3" fill="#006f91"/>
  <circle cx="261" cy="123" r="2.3" fill="#006f91"/>
  <circle cx="308" cy="42" r="2.3" fill="#006f91"/>
  <circle cx="85" cy="73" r="2.3" fill="#006f91"/>
  <circle cx="132" cy="104" r="2.3" fill="#c44530"/>
  <circle cx="179" cy="135" r="2.3" fill="#006f91"/>
  <circle cx="226" cy="54" r="2.3" fill="#006f91"/>
  <circle cx="273" cy="85" r="2.3" fill="#006f91"/>
  <circle cx="320" cy="116" r="2.3" fill="#006f91"/>
  <circle cx="97" cy="147" r="2.3" fill="#006f91"/>
  <circle cx="144" cy="66" r="2.3" fill="#006f91"/>
  <circle cx="191" cy="97" r="2.3" fill="#006f91"/>
  <circle cx="238" cy="128" r="2.3" fill="#006f91"/>
  <circle cx="285" cy="47" r="2.3" fill="#006f91"/>
  <circle cx="62" cy="78" r="2.3" fill="#006f91"/>
  <circle cx="109" cy="109" r="2.3" fill="#006f91"/>
  <circle cx="156" cy="140" r="2.3" fill="#006f91"/>
  <circle cx="203" cy="59" r="2.3" fill="#c44530"/>
  <circle cx="250" cy="90" r="2.3" fill="#006f91"/>
  <circle cx="297" cy="121" r="2.3" fill="#006f91"/>
  <circle cx="74" cy="40" r="2.3" fill="#006f91"/>
  <circle cx="121" cy="71" r="2.3" fill="#006f91"/>
  <circle cx="168" cy="102" r="2.3" fill="#006f91"/>
  <circle cx="215" cy="133" r="2.3" fill="#006f91"/>
  <circle cx="262" cy="52" r="2.3" fill="#006f91"/>
  <circle cx="309" cy="83" r="2.3" fill="#006f91"/>
  <circle cx="86" cy="114" r="2.3" fill="#006f91"/>
  <circle cx="133" cy="145" r="2.3" fill="#006f91"/>
  <circle cx="180" cy="64" r="2.3" fill="#006f91"/>
  <circle cx="227" cy="95" r="2.3" fill="#006f91"/>
  <circle cx="274" cy="126" r="2.3" fill="#c44530"/>
  <circle cx="321" cy="45" r="2.3" fill="#006f91"/>
  <circle cx="98" cy="76" r="2.3" fill="#006f91"/>
  <circle cx="145" cy="107" r="2.3" fill="#006f91"/>
  <circle cx="192" cy="138" r="2.3" fill="#006f91"/>
  <circle cx="239" cy="57" r="2.3" fill="#006f91"/>
  <circle cx="286" cy="88" r="2.3" fill="#006f91"/>
  <circle cx="63" cy="119" r="2.3" fill="#006f91"/>
  <circle cx="110" cy="38" r="2.3" fill="#006f91"/>
  <circle cx="157" cy="69" r="2.3" fill="#006f91"/>
  <circle cx="204" cy="100" r="2.3" fill="#006f91"/>
  <circle cx="251" cy="131" r="2.3" fill="#006f91"/>
  <circle cx="298" cy="50" r="2.3" fill="#006f91"/>
  <circle cx="75" cy="81" r="2.3" fill="#c44530"/>
  <circle cx="122" cy="112" r="2.3" fill="#006f91"/>
  <circle cx="169" cy="143" r="2.3" fill="#006f91"/>
  <circle cx="216" cy="62" r="2.3" fill="#006f91"/>
  <text x="180" y="181" class="axis-title" text-anchor="middle">每点=100单位 · 点位非精确地址</text>
</svg>
