<?xml version='1.0' encoding='utf-8'?>
<svg class="chart-svg" role="img" aria-labelledby="t-地震波式事件图示例 d-地震波式事件图示例" xmlns="http://www.w3.org/2000/svg" viewBox="0 0 360 190" width="360" height="190">
  <style>:root{--paper:#faf2d9;--ink:#1c211d;--muted:#625c4d;--rule:#cdbd8f;--cinnabar:#e14b32;--stone-blue:#007ea7;--stone-green:#259b62;--ochre:#d99a16}
text{font-family:"PingFang SC","Noto Sans CJK SC","Microsoft YaHei",sans-serif;fill:var(--ink)}
.label,.value,.value-light,.big-value,.note,.tick,.axis-title{font-size:12px}
.value,.big-value{font-weight:700;font-variant-numeric:tabular-nums}.big-value{font-size:18px}
.value-light{font-weight:700;fill:var(--paper)}.tick,.axis-title{fill:var(--muted)}
.axis{stroke:var(--rule);stroke-width:1}.grid{stroke:var(--rule);stroke-width:1;stroke-dasharray:3 4;opacity:.72}
.red{stroke:var(--cinnabar);stroke-width:2.5}.blue{stroke:var(--stone-blue);stroke-width:2.5}.green{stroke:var(--stone-green);stroke-width:2.5}.gold{stroke:var(--ochre);stroke-width:2.5}</style>
  <title id="t-地震波式事件图示例">地震波式事件图示例</title>
  <desc id="d-地震波式事件图示例">高频事件以振幅显示强度，重点峰直接标出。</desc>
  <line x1="40" y1="100" x2="340" y2="100" class="zero"/>
  <polyline points="43,130.16 48,94.78 53,105.8 58,93.62 63,106.96 68,92.46000000000001 73,108.12 78,81.44 83,109.28 88,90.14 93,110.44 98,69.84 103,104.64 108,94.78 113,118.56 118,93.62 123,106.96 128,92.46000000000001 133,108.12 138,91.3 143,109.28 148,81.44 153,130.16 158,88.98 163,104.64 168,94.78 173,105.8 178,93.62 183,118.56 188,92.46000000000001 193,108.12 198,91.3 203,109.28 208,69.84 213,110.44 218,81.44 223,104.64 228,94.78 233,105.8 238,93.62 243,106.96 248,92.46000000000001 253,118.56 258,91.3 263,130.16 268,90.14 273,110.44 278,88.98 283,104.64 288,81.44 293,105.8 298,93.62 303,106.96 308,92.46000000000001 313,108.12 318,69.84 323,118.56 328,90.14 333,110.44 338,88.98" fill="none" stroke="#007ea7" stroke-width="1.6"/>
  <line x1="263" y1="34" x2="263" y2="100" class="reference"/>
  <text x="263" y="27" class="note" text-anchor="middle">最大事件</text>
</svg>
